<svg width="50" height="50" xmlns="http://www.w3.org/2000/svg"><g id="compass"><path d="M38.094 12.523c-6.639-7.339-17.991-7.918-25.308-1.3-7.315 6.623-7.863 17.98-1.225 25.314 6.639 7.337 17.993 7.917 25.31 1.296 7.315-6.62 7.863-17.976 1.223-25.31" id="Path" fill="#FFF" stroke="#959595" stroke-width=".5"/><path d="M35.803 14.598c-5.493-6.066-14.886-6.546-20.936-1.071-6.053 5.475-6.506 14.866-1.014 20.933 5.493 6.068 14.884 6.548 20.938 1.073 6.05-5.475 6.504-14.868 1.012-20.935" id="Path" fill="#FFF" stroke="#959595" stroke-width=".5"/><path d="M26.76 22.78L8.576 6.576l14.321 19.702 18.18 16.206L26.76 22.78z" id="Fill-6" fill="#959595" stroke="#959595" stroke-width=".5" stroke-linejoin="round"/><path d="M0 0l14.32 19.701 1.931-1.745L0 0z" transform="translate(8.578 6.575)" id="Fill-7" fill="#FFF" stroke="none"/><path d="M16.25 19.703L1.93 0 0 1.75l16.25 17.953z" transform="translate(24.83 22.781)" id="Fill-8" fill="#FFF" stroke="none"/><path d="M23.076 22.593L6.923 40.735l19.656-14.271L42.732 8.325 23.076 22.593z" id="Fill-10" fill="#959595" stroke="#959595" stroke-width=".5" stroke-linejoin="round"/><path d="M0 16.206l19.656-14.27L17.905 0 0 16.206z" transform="translate(6.925 24.53)" id="Fill-11" fill="#FFF" stroke="none"/><path d="M19.656 0L0 14.268l1.752 1.938L19.656 0z" transform="translate(23.076 8.324)" id="Fill-12" fill="#FFF" stroke="none"/><path d="M24.914 22.771l-16.38.924 16.21 2.591 16.38-.922-16.21-2.593z" id="Fill-14" fill="#959595" stroke="#959595" stroke-width=".5" stroke-linejoin="round"/><path d="M0 0l16.21 2.59.085-1.755L0 0z" transform="translate(8.533 23.695)" id="Fill-15" fill="#FFF" stroke="none"/><path d="M16.295 2.59L.085 0 0 1.757l16.295.834z" transform="translate(24.828 22.773)" id="Fill-16" fill="#FFF" stroke="none"/><path d="M23.071 24.44l.967 16.387 2.548-16.208-.967-16.387L23.07 24.44z" id="Fill-18" fill="#959595" stroke="#959595" stroke-width=".5" stroke-linejoin="round"/><path d="M0 16.297L2.548.09.79 0 0 16.297z" transform="translate(24.038 24.53)" id="Fill-19" fill="#FFF" stroke="none"/><path d="M2.546 0L0 16.208l1.757.09L2.546 0z" transform="translate(23.072 8.232)" id="Fill-20" fill="#FFF" stroke="none"/><path d="M2.948 4.042L3.35 5.05c-.568.276-1.083.368-1.547.282C1.34 5.243.926 4.984.56 4.555.108 4.022-.071 3.421.025 2.75c.097-.67.478-1.29 1.15-1.86.708-.605 1.406-.9 2.092-.89.684.01 1.266.297 1.742.857.416.492.601 1.02.554 1.589-.028.336-.173.696-.438 1.077l-.881-.63c.179-.233.267-.48.27-.74 0-.26-.091-.496-.276-.712a1.152 1.152 0 00-.953-.432c-.384.008-.83.228-1.337.658-.539.458-.847.875-.92 1.252-.075.378.012.71.261 1.003.183.214.411.338.688.368.278.033.602-.05.971-.248" transform="translate(44.198 2.888)" id="Fill-22" fill="#959595" stroke="none"/><path d="M4.053 4.087c-.473.4-.764.8-.87 1.195-.107.395-.024.753.247 1.073.281.33.62.468 1.013.417.395-.053.849-.293 1.358-.727.488-.417.765-.816.832-1.2a1.193 1.193 0 00-.281-1.02 1.14 1.14 0 00-.948-.416c-.385.013-.835.238-1.35.678zM4.263 0l.687.81-1.781 1.514.554.648c.566-.397 1.154-.6 1.764-.6.609-.001 1.16.286 1.647.86.468.552.653 1.152.548 1.802-.104.65-.507 1.274-1.213 1.874-.461.393-.916.656-1.362.792-.448.136-.873.15-1.272.041-.399-.106-.764-.352-1.093-.739-.334-.393-.534-.763-.6-1.107-.062-.344-.025-.73.123-1.153.147-.425.395-.812.743-1.16l-.55-.651L.685 4.433 0 3.625 4.264 0z" transform="translate(0 40.596)" id="Fill-23" fill="#959595" stroke="none"/><path d="M4.244 1.411l-.985.838.449.53c.269.315.44.508.515.577a.68.68 0 00.43.194.61.61 0 00.435-.163.637.637 0 00.233-.375.61.61 0 00-.108-.433c-.06-.088-.251-.322-.574-.704l-.395-.464zM2.55 2.852l-1.142.97.634.749c.25.29.417.467.502.532.124.1.263.15.418.15.154-.002.307-.067.459-.195a.74.74 0 00.25-.366.648.648 0 00-.019-.416c-.055-.146-.237-.403-.548-.771l-.554-.653zM4.266 0l1.362 1.6c.27.319.456.566.56.745.105.181.164.368.181.57.014.197-.017.401-.096.608a1.396 1.396 0 01-1.073.863c-.254.041-.496.01-.726-.095.132.309.163.608.09.895a1.395 1.395 0 01-.473.745 1.772 1.772 0 01-.674.352c-.256.07-.5.08-.736.027a1.473 1.473 0 01-.662-.371c-.132-.122-.417-.439-.86-.952L0 3.623 4.266 0z" transform="translate(40.6 43.33)" id="Fill-24" fill="#959595" stroke="none"/><path d="M3.23 1.171L2.757.218c.837-.42 1.592-.232 2.268.56.4.472.592.918.574 1.347-.015.426-.173.767-.47 1.016a1.26 1.26 0 01-.69.307c-.255.03-.54-.012-.849-.126.128.348.161.665.097.948-.063.285-.227.538-.486.756-.375.319-.788.447-1.237.386-.45-.061-.894-.348-1.33-.861C.28 4.13.07 3.737.014 3.369c-.059-.371.063-.788.368-1.256l.889.521c-.191.295-.272.537-.238.727.031.191.126.38.285.565.216.255.432.39.65.408a.73.73 0 00.55-.167.674.674 0 00.254-.556c-.005-.224-.121-.47-.347-.735l-.156-.181.643-.547.079.093c.21.246.43.387.66.417.23.033.442-.038.64-.203a.695.695 0 00.255-.493c.017-.199-.06-.395-.228-.596-.29-.338-.651-.403-1.088-.195" transform="translate(3.766)" id="Fill-25" fill="#959595" stroke="none"/><path d="M4.427 4.624A2.653 2.653 0 11.877.682a2.653 2.653 0 013.55 3.942" transform="translate(22.187 21.869)" id="Fill-26" fill="#FFF" stroke="none"/></g></svg>