<svg width="141" height="113" xmlns="http://www.w3.org/2000/svg"><path d="M44.351 89.091l50.955 8.058-1.546 9.51-50.954-8.057 1.545-9.51z" id="Fill-1" fill="#F3F3F2" stroke="#959595" stroke-width=".3"/><path d="M13.12 82.11l-.2 1.108 5.73.995-1.291 9.114L1.15 90.503 2.777 80.15l10.344 1.96z" id="Fill-3" fill="#F3F3F2" stroke="#959595" stroke-width=".3"/><path d="M15.16 79.911l-1.202-.227-.582 2.819L.487 80.116l.83-4.027-1.167-.227 4.39-21.49 1.05.175 1.297-6.083 12.95 2.502-1.132 6.12 1 .13-4.544 22.695z" id="Fill-5" fill="#F3F3F2" stroke="#959595" stroke-width=".3"/><path d="M20.635 48.583l-.64 3.175-12.84-2.578.744-3.272-1.186-.238 4.52-22.963 1.193.235 1.244-6.321 12.73 2.512-1.199 6.362 1.153.192-4.627 22.909-1.065-.215-.027.202z" id="Fill-7" fill="#F3F3F2" stroke="#959595" stroke-width=".3"/><path d="M27.179 14.255l-.99 4.562-11.218-2.325.563-2.756-1.165-.2L16.995.15l18.623.17-.002 1.055 2.46.006.002-1.182 17.103.04-.003 1.084 2.94.006-.03 12.998-2.934-.007-.002 1.047-22.544-.053.003-1.068-5.432.01z" id="Fill-9" fill="#F3F3F2" stroke="#959595" stroke-width=".3"/><path d="M98.588.244l-4.14-.01-.003 1.12-5.359-.013.004-1.119-12.806-.03-.002 1.12-5.409-.014.003-1.118L58.155.15l-.036 15.376 6.76.015.003-1.22 5.27.013-.01 4.454 12.163.029.01-4.362 5.803.014-.003 1.128 10.435.024.038-15.377z" id="Fill-11" fill="#F3F3F2" stroke="#959595" stroke-width=".3"/><path d="M139.056 1.335L119.62 1.29l-.004 1.143-5.205-.011.003-1.144-12.998-.03-.003 1.143-2.79-.007-.034 13.646 9.84.022.002-1.163 5.662.014-.003 1.161 7.144.017.003-1.294 4.883.01-.01 3.992 11.747.028.014-5.871 1.159.002.027-11.613z" id="Fill-13" fill="#F3F3F2" stroke="#959595" stroke-width=".3"/><path d="M124.904 18.817l15.246.037-.066 27.414-15.247-.037.067-27.414z" id="Fill-15" fill="#F3F3F2" stroke="#959595" stroke-width=".3"/><path d="M124.904 46.268l15.246.037-.066 27.414-15.247-.039.067-27.412z" id="Fill-17" fill="#F3F3F2" stroke="#959595" stroke-width=".3"/><path d="M124.904 73.719l15.246.036-.066 27.415-15.247-.037.067-27.414z" id="Fill-19" fill="#F3F3F2" stroke="#959595" stroke-width=".3"/><path d="M136.284 112.15l-16.915-2.616 1.477-9.462 3.828.609-.002.51 13.29-.042-1.678 11.001z" id="Fill-21" fill="#F3F3F2" stroke="#959595" stroke-width=".3"/><path d="M83.068 24.9l.014-6.05-13.935-.033-.09 39.492 15.234.037.078-33.468-1.3.023z" id="Fill-23" fill="#93C01F" stroke="#959595" stroke-width=".3"/><path d="M84.282 97.825l-6.93-.016-.002 1.165-8.294-.02.097-40.608 15.216.035-.087 39.444z" id="Fill-25" fill="#F3F3F2" stroke="#959595" stroke-width=".3"/></svg>