<?xml version="1.0" encoding="utf-8"?>
<svg width="50px" height="50px" viewBox="0 0 50 50" version="1.1" xmlns:xlink="http://www.w3.org/1999/xlink" xmlns="http://www.w3.org/2000/svg">
  <desc>Created with Lunacy</desc>
  <g id="compass">
    <path d="M31.1738 5.90738C24.5353 -1.43099 13.1827 -2.01091 5.86596 4.60798C-1.44882 11.2308 -1.99729 22.5873 4.64126 29.9217C11.2798 37.2582 22.6343 37.8381 29.9511 31.2172C37.2659 24.5983 37.8143 13.2418 31.1738 5.90738" transform="translate(6.919876 6.61543)" id="Path" fill="#FFFFFF" stroke="#959595" stroke-width="0.5" />
    <path d="M25.7903 4.88288C20.2966 -1.1829 10.904 -1.66328 4.85412 3.81194C-1.19923 9.28717 -1.65215 18.6777 3.83978 24.7452C9.33343 30.8127 18.7243 31.2931 24.7777 25.8179C30.8276 20.3426 31.2822 10.9504 25.7903 4.88288" transform="translate(10.01295 9.715076)" id="Path" fill="#FFFFFF" stroke="#959595" stroke-width="0.5" />
    <path d="M18.1818 16.2042L0 0L14.3209 19.7014L32.5008 35.9075L18.1818 16.2042Z" transform="translate(8.577427 6.576231)" id="Fill-6" fill="#959595" stroke="#959595" stroke-width="0.5" stroke-linejoin="round" />
    <path d="M0 0L14.3209 19.7014L16.2514 17.9557L0 0Z" transform="translate(8.577821 6.575444)" id="Fill-7" fill="#FFFFFF" stroke="none" />
    <path d="M16.2494 19.7033L1.93043 0L0 1.74957L16.2494 19.7033Z" transform="translate(24.82958 22.7814)" id="Fill-8" fill="#FFFFFF" stroke="none" />
    <path d="M16.1531 14.2679L0 32.4103L19.6562 18.1385L35.8092 0L16.1531 14.2679Z" transform="translate(6.923 8.325017)" id="Fill-10" fill="#959595" stroke="#959595" stroke-width="0.5" stroke-linejoin="round" />
    <path d="M0 16.2062L19.6562 1.93632L17.9046 0L0 16.2062Z" transform="translate(6.924966 24.52921)" id="Fill-11" fill="#FFFFFF" stroke="none" />
    <path d="M19.6562 0L0 14.2679L1.75154 16.2062L19.6562 0Z" transform="translate(23.07588 8.324034)" id="Fill-12" fill="#FFFFFF" stroke="none" />
    <path d="M16.3811 0L0 0.923932L16.2101 3.51487L32.5912 2.59291L16.3811 0Z" transform="translate(8.533393 22.77138)" id="Fill-14" fill="#959595" stroke="#959595" stroke-width="0.5" stroke-linejoin="round" />
    <path d="M0 0L16.2101 2.59094L16.2946 0.83547L0 0Z" transform="translate(8.533393 23.69491)" id="Fill-15" fill="#FFFFFF" stroke="none" />
    <path d="M16.2946 2.59094L0.0845299 0L0 1.75744L16.2946 2.59094Z" transform="translate(24.8284 22.77295)" id="Fill-16" fill="#FFFFFF" stroke="none" />
    <path d="M0 16.2081L0.967179 32.5951L3.51487 16.387L2.54769 0L0 16.2081Z" transform="translate(23.07116 8.232034)" id="Fill-18" fill="#959595" stroke="#959595" stroke-width="0.5" stroke-linejoin="round" />
    <path d="M0 16.2966L2.54769 0.0904273L0.790256 0L0 16.2966Z" transform="translate(24.03795 24.5294)" id="Fill-19" fill="#FFFFFF" stroke="none" />
    <path d="M2.54573 0L0 16.2081L1.75744 16.2985L2.54573 0Z" transform="translate(23.07156 8.232034)" id="Fill-20" fill="#FFFFFF" stroke="none" />
    <path d="M2.94846 4.04195L3.34948 5.05041C2.78136 5.32562 2.26632 5.41802 1.80239 5.33152C1.34042 5.24306 0.925638 4.98357 0.559997 4.55502C0.10786 4.02229 -0.071029 3.42075 0.0252958 2.75041C0.121621 2.08007 0.502988 1.45887 1.1753 0.888785C1.88299 0.285281 2.58085 -0.00959128 3.26692 0.000237783C3.95102 0.0100668 4.5329 0.297075 5.00863 0.857332C5.42538 1.34878 5.61017 1.87759 5.56299 2.44571C5.53547 2.78186 5.39 3.14161 5.12461 3.52297L4.24393 2.89391C4.42282 2.65998 4.51128 2.41229 4.51325 2.1528C4.51325 1.89331 4.42282 1.65742 4.23803 1.44118C3.98837 1.14434 3.66991 0.99887 3.28461 1.0087C2.90128 1.01656 2.45504 1.23673 1.94786 1.66725C1.40923 2.12528 1.1006 2.54203 1.02786 2.91947C0.953159 3.2969 1.03966 3.62913 1.28931 3.92203C1.47213 4.13631 1.70017 4.26015 1.97735 4.28964C2.25453 4.32306 2.57889 4.24049 2.94846 4.04195" transform="translate(44.19839 2.88813)" id="Fill-22" fill="#959595" stroke="none" />
    <path d="M4.0535 4.08692C3.57974 4.48795 3.2888 4.88701 3.18265 5.28214C3.0765 5.67727 3.15906 6.03504 3.43034 6.35547C3.71145 6.68573 4.04957 6.82333 4.44274 6.77222C4.83786 6.71915 5.29197 6.47932 5.80111 6.04487C6.28863 5.62812 6.56581 5.22906 6.63265 4.84573C6.69752 4.46239 6.60513 4.12231 6.35154 3.82547C6.10581 3.5365 5.78932 3.39692 5.40402 3.40872C5.01872 3.42248 4.56855 3.64658 4.0535 4.08692L4.0535 4.08692ZM4.26385 0L4.94991 0.809915L3.16889 2.32359L3.72325 2.97231C4.2894 2.57521 4.87718 2.37274 5.48658 2.37274C6.09598 2.37077 6.64641 2.65778 7.13393 3.2318C7.60179 3.78419 7.78658 4.38376 7.68239 5.03444C7.57821 5.68316 7.17521 6.30829 6.46949 6.90786C6.00752 7.30103 5.55342 7.56444 5.10718 7.70009C4.65897 7.83573 4.23436 7.84949 3.8353 7.74137C3.43624 7.63521 3.0706 7.38949 2.74231 7.00222C2.40812 6.60906 2.20761 6.23949 2.14274 5.89547C2.07983 5.55145 2.11718 5.16419 2.26462 4.74154C2.41205 4.31692 2.65974 3.92966 3.00769 3.58171L2.45727 2.93103L0.686068 4.43291L0 3.62496L4.26385 0Z" transform="translate(0 40.59598)" id="Fill-23" fill="#959595" stroke="none" />
    <path d="M4.24419 1.41145L3.25932 2.24889L3.70752 2.77966C3.97684 3.09419 4.14786 3.28684 4.22256 3.35564C4.3582 3.47752 4.50171 3.54436 4.65308 3.55026C4.80444 3.55812 4.94795 3.50504 5.08752 3.38709C5.21923 3.27504 5.29786 3.14923 5.32145 3.01162C5.34504 2.87205 5.30769 2.72855 5.21333 2.57915C5.15239 2.49068 4.96171 2.25675 4.63932 1.87538L4.24419 1.41145ZM2.54966 2.85239L1.40752 3.82154L2.04248 4.57051C2.29214 4.86145 2.45923 5.03838 2.54376 5.10325C2.66761 5.2035 2.80718 5.25265 2.96248 5.25265C3.11581 5.25068 3.26915 5.18581 3.42051 5.05803C3.54829 4.94991 3.63282 4.82803 3.67017 4.69239C3.71145 4.55872 3.70359 4.41915 3.65248 4.27564C3.59744 4.13017 3.41462 3.87265 3.10402 3.50504L2.54966 2.85239ZM4.26581 0L5.62812 1.60017C5.89744 1.91863 6.08419 2.16632 6.18838 2.34521C6.29256 2.52607 6.35154 2.71282 6.36923 2.9153C6.38299 3.11188 6.35154 3.31632 6.27291 3.52274C6.19427 3.73111 6.06256 3.91393 5.87974 4.0712C5.67727 4.24026 5.4512 4.34444 5.19957 4.38573C4.94598 4.42701 4.70419 4.39556 4.47419 4.29137C4.6059 4.6 4.63735 4.8988 4.56462 5.18581C4.49581 5.47085 4.33855 5.72051 4.09085 5.93085C3.89624 6.09402 3.67214 6.21197 3.41658 6.28274C3.16103 6.3535 2.91727 6.36333 2.68137 6.31026C2.44744 6.25521 2.22727 6.13137 2.01889 5.93872C1.88718 5.81684 1.60214 5.50034 1.15983 4.98727L0 3.62299L4.26581 0Z" transform="translate(40.6009 43.33003)" id="Fill-24" fill="#959595" stroke="none" />
    <path d="M3.23048 1.17147L2.75672 0.218049C3.59416 -0.202635 4.34903 -0.0139171 5.02527 0.778305C5.42433 1.2501 5.61698 1.69634 5.59929 2.12489C5.58356 2.55147 5.42629 2.89155 5.12946 3.14121C4.92894 3.31617 4.69698 3.41642 4.43946 3.44788C4.1839 3.47736 3.89886 3.43608 3.59023 3.32207C3.718 3.67001 3.75142 3.98651 3.68655 4.26959C3.62365 4.55463 3.46048 4.80822 3.201 5.02642C2.82553 5.34489 2.41271 5.47266 1.9645 5.41172C1.51433 5.35078 1.07006 5.06378 0.633645 4.5507C0.279799 4.13001 0.0714231 3.73685 0.0144146 3.36925C-0.0445598 2.99771 0.0773206 2.58095 0.382021 2.11309L1.27057 2.63403C1.07988 2.9289 0.999286 3.1707 1.03271 3.36138C1.06416 3.55207 1.15852 3.74078 1.31775 3.92557C1.53399 4.18113 1.75023 4.31677 1.96843 4.33446C2.18271 4.35215 2.36749 4.29514 2.51886 4.16737C2.69382 4.01993 2.77835 3.83318 2.77245 3.61104C2.76655 3.38694 2.65057 3.14121 2.4245 2.87583L2.2692 2.69497L2.91202 2.14848L2.99065 2.24087C3.201 2.4866 3.42117 2.62813 3.65117 2.65762C3.88117 2.69104 4.09347 2.62027 4.29006 2.45514C4.44535 2.32147 4.53185 2.15831 4.54561 1.96172C4.5633 1.76318 4.48664 1.5666 4.31758 1.36608C4.0286 1.02796 3.66689 0.963091 3.23048 1.17147" transform="translate(3.766432 -4.019695E-05)" id="Fill-25" fill="#959595" stroke="none" />
    <path d="M4.42701 4.62427C3.33991 5.60521 1.66111 5.51675 0.680169 4.42769C-0.298805 3.33863 -0.210344 1.66179 0.87675 0.680852C1.96581 -0.298122 3.64265 -0.211626 4.62359 0.877434C5.60453 1.96649 5.51607 3.64333 4.42701 4.62427" transform="translate(22.18714 21.86898)" id="Fill-26" fill="#FFFFFF" stroke="none" />
  </g>
</svg>