<?xml version="1.0" encoding="utf-8"?>
<svg width="141px" height="113px" viewBox="0 0 141 113" version="1.1" xmlns:xlink="http://www.w3.org/1999/xlink" xmlns="http://www.w3.org/2000/svg">
  <desc>Created with Lunacy</desc>
  <path d="M1.54479 0L52.5 8.05817L50.9539 17.5686L0 9.51046L1.54479 0Z" transform="translate(42.80625 89.09118)" id="Fill-1" fill="#F3F3F2" stroke="#959595" stroke-width="0.3" />
  <path d="M11.9706 1.96066L11.7692 3.06848L17.5 4.06283L16.2088 13.1765L0 10.3528L1.6273 0L11.9706 1.96066Z" transform="translate(1.150002 80.15)" id="Fill-3" fill="#F3F3F2" stroke="#959595" stroke-width="0.3" />
  <path d="M15.0107 31.4474L13.8079 31.2204L13.2261 34.0392L0.337128 31.6519L1.16758 27.625L0 27.398L4.39048 5.90863L5.43961 6.083L6.73736 0L19.6875 2.5027L18.5551 8.62208L19.5547 8.75255L15.0107 31.4474Z" transform="translate(0.1500015 48.46372)" id="Fill-5" fill="#F3F3F2" stroke="#959595" stroke-width="0.3" />
  <path d="M13.9222 31.9623L13.2833 35.1373L0.442691 32.5593L1.1861 29.2875L0 29.0497L4.51984 6.08622L5.71369 6.3214L6.95787 0L19.6875 2.51202L18.4885 8.87477L19.641 9.06601L15.0141 31.9753L13.9493 31.7608L13.9222 31.9623Z" transform="translate(6.712502 16.62059)" id="Fill-7" fill="#F3F3F2" stroke="#959595" stroke-width="0.3" />
  <path d="M12.8101 14.1052L11.8206 18.6667L0.602012 16.3424L1.1649 13.5859L0 13.3863L2.62639 0L21.2496 0.170127L21.2471 1.22543L23.7069 1.23054L23.7094 0.0486078L40.8119 0.0882615L40.8094 1.17298L43.75 1.17938L43.7184 14.1768L40.7854 14.1704L40.7829 15.2168L18.2396 15.1643L18.2421 14.0963L12.8101 14.1052Z" transform="translate(14.36875 0.1500015)" id="Fill-9" fill="#F3F3F2" stroke="#959595" stroke-width="0.3" />
  <path d="M40.4688 0.0938734L36.3284 0.0835859L36.3258 1.20364L30.9673 1.19078L30.9712 0.0720125L18.1655 0.04115L18.1629 1.1612L12.7543 1.14834L12.7569 0.0295766L0.0360145 0L0 15.376L6.76044 15.3914L6.76301 14.171L12.034 14.1839L12.0224 18.6384L24.1863 18.6667L24.1966 14.3048L29.9988 14.3189L29.9962 15.4467L40.4314 15.4711L40.4688 0.0938734Z" transform="translate(58.11875 0.1500015)" id="Fill-11" fill="#F3F3F2" stroke="#959595" stroke-width="0.3" />
  <path d="M40.4688 0.0865571L21.0314 0.042042L21.0276 1.1846L15.8225 1.17347L15.825 0.0296767L2.82725 0L2.82472 1.14255L0.0340784 1.13637L0 14.7815L9.83983 14.8037L9.84235 13.6414L15.5044 13.655L15.5019 14.8161L22.6457 14.8334L22.6483 13.5388L27.5316 13.5499L27.5215 17.5414L39.2684 17.5686L39.2823 11.6976L40.441 11.7001L40.4688 0.0865571Z" transform="translate(98.5875 1.248039)" id="Fill-13" fill="#F3F3F2" stroke="#959595" stroke-width="0.3" />
  <path d="M0.0662989 0L15.3125 0.0369787L15.2462 27.451L0 27.414L0.0662989 0Z" transform="translate(124.8375 18.81667)" id="Fill-15" fill="#F3F3F2" stroke="#959595" stroke-width="0.3" />
  <path d="M0.0663044 0L15.3125 0.0369787L15.2462 27.451L0 27.4127L0.0663044 0Z" transform="translate(124.8375 46.26765)" id="Fill-17" fill="#F3F3F2" stroke="#959595" stroke-width="0.3" />
  <path d="M0.0663044 0L15.3125 0.0367619L15.2462 27.451L0 27.4142L0.0663044 0Z" transform="translate(124.8375 73.71863)" id="Fill-19" fill="#F3F3F2" stroke="#959595" stroke-width="0.3" />
  <path d="M16.9156 12.0784L0 9.46244L1.47725 0L5.30496 0.609007L5.30367 1.12021L18.5938 1.07717L16.9156 12.0784Z" transform="translate(119.3688 100.0716)" id="Fill-21" fill="#F3F3F2" stroke="#959595" stroke-width="0.3" />
  <path d="M14.0122 6.08399L14.0262 0.0342796L0.0904256 0L0 39.4926L15.2348 39.5294L15.3125 6.06113L14.0122 6.08399Z" transform="translate(69.05625 18.81667)" id="Fill-23" fill="#93C01F" stroke="#959595" stroke-width="0.3" />
  <path d="M15.226 39.4792L8.29666 39.4628L8.29411 40.6275L0 40.6073L0.096665 0L15.3125 0.0353304L15.226 39.4792Z" transform="translate(69.05625 58.34608)" id="Fill-25" fill="#F3F3F2" stroke="#959595" stroke-width="0.3" />
</svg>